Coordinates
version=1
nRows=16
nColumns=63
inDegrees=yes

Units are S.I. units (second, meters, Newtons, ...)
If the header above contains a line with 'inDegrees', this indicates whether rotational values are in degrees (yes) or radians (no).

endheader
time	pelvis_tilt	pelvis_list	pelvis_rotation	pelvis_tx	pelvis_ty	pelvis_tz	hip_flexion_r	hip_adduction_r	hip_rotation_r	knee_angle_r	knee_angle_r_beta	ankle_angle_r	subtalar_angle_r	mtp_angle_r	hip_flexion_l	hip_adduction_l	hip_rotation_l	knee_angle_l	knee_angle_l_beta	ankle_angle_l	subtalar_angle_l	mtp_angle_l	L5_S1_Flex_Ext	L5_S1_Lat_Bending	L5_S1_axial_rotation	L4_L5_Flex_Ext	L4_L5_Lat_Bending	L4_L5_axial_rotation	L3_L4_Flex_Ext	L3_L4_Lat_Bending	L3_L4_axial_rotation	L2_L3_Flex_Ext	L2_L3_Lat_Bending	L2_L3_axial_rotation	L1_L2_Flex_Ext	L1_L2_Lat_Bending	L1_L2_axial_rotation	L1_T12_Flex_Ext	L1_T12_Lat_Bending	L1_T12_axial_rotation	Abs_r3	Abs_r2	Abs_r1	Abs_t1	Abs_t2	neck_flexion	neck_bending	neck_rotation	arm_flex_r	arm_add_r	arm_rot_r	elbow_flex_r	pro_sup_r	wrist_flex_r	wrist_dev_r	arm_flex_l	arm_add_l	arm_rot_l	elbow_flex_l	pro_sup_l	wrist_flex_l	wrist_dev_l
6.033333	7.821721	-49.620213	91.274590	0.220635	0.660251	0.876811	69.486785	4.847147	-14.140062	26.386382	0.460529	26.479244	2.457841	0.000000	70.814010	-5.887892	5.801073	32.096517	0.560190	24.690416	-13.339841	0.000000	-0.336153	0.612133	-0.917193	-0.624269	0.814137	-0.974518	-0.552265	1.488341	-0.974518	-0.384189	1.488341	-0.802544	-0.312151	1.248262	-0.745219	-0.192078	0.948195	-0.687895	-2.401106	6.924575	-5.101154	0.000000	0.000000	17.147566	-6.141038	-0.411404	33.634250	4.119257	11.116177	98.353626	88.680083	-2.090624	0.756109	23.038915	14.012748	11.871109	107.469211	88.392520	-24.181698	-0.470756
6.050000	5.165720	-49.107515	89.329258	0.224213	0.659064	0.875947	69.950239	4.415446	-11.859844	27.376043	0.477802	27.106522	1.908650	0.000000	70.408377	-5.389519	3.504600	32.315293	0.564008	25.189351	-12.292792	0.000000	-0.346056	0.350660	-0.785404	-0.642661	0.466378	-0.834492	-0.568536	0.852595	-0.834492	-0.395508	0.852595	-0.687228	-0.321348	0.715066	-0.638141	-0.197736	0.543173	-0.589053	-2.471844	3.966738	-4.368180	0.000000	0.000000	17.404115	-5.457490	-2.020843	33.889877	5.204232	11.993176	97.877181	88.647447	-1.141031	1.414904	23.206839	12.280344	11.720648	108.481460	88.480144	-25.555844	-1.006358
6.066667	2.041605	-48.577798	87.014951	0.228446	0.658289	0.874789	70.417025	3.917669	-9.227369	28.411997	0.495883	27.673073	1.244110	0.000000	69.825674	-4.822202	0.838354	32.341112	0.564459	25.574295	-11.161252	0.000000	-0.354535	0.040759	-0.606614	-0.658407	0.054210	-0.644528	-0.582466	0.099102	-0.644528	-0.405198	0.099102	-0.530787	-0.329221	0.083116	-0.492874	-0.202581	0.063136	-0.454961	-2.532409	0.461076	-3.373806	0.000000	0.000000	17.588959	-4.356257	-4.126180	34.052032	6.436844	12.656702	97.285185	88.599461	-0.507606	1.917370	23.519308	10.426552	11.558484	109.370691	88.563514	-26.602393	-1.243448
6.083333	-1.430050	-48.057938	84.433381	0.233169	0.657975	0.873405	70.868542	3.362414	-6.348536	29.466289	0.514284	28.151591	0.458938	0.000000	69.080446	-4.200000	-2.079902	32.161640	0.561327	25.818158	-10.001629	0.000000	-0.362037	-0.306086	-0.382708	-0.672340	-0.407095	-0.406627	-0.594791	-0.744219	-0.406627	-0.413772	-0.744219	-0.334869	-0.336188	-0.624172	-0.310950	-0.206868	-0.474128	-0.287031	-2.585997	-3.462512	-2.128505	0.000000	0.000000	17.707166	-2.875659	-6.717558	34.099562	7.784560	12.996325	96.628272	88.543474	-0.029444	2.306215	24.024307	8.556659	11.402514	110.045473	88.637764	-27.254192	-1.166130
6.100000	-5.168654	-47.564004	81.636471	0.238249	0.658151	0.871879	71.295271	2.755115	-3.335977	30.514983	0.532587	28.539685	-0.372407	0.000000	68.185059	-3.535872	-5.152079	31.763063	0.554370	25.900682	-8.895022	0.000000	-0.368941	-0.681516	-0.115592	-0.685161	-0.906417	-0.122817	-0.606134	-1.657039	-0.122817	-0.421663	-1.657039	-0.101143	-0.342599	-1.389748	-0.093919	-0.210813	-1.055669	-0.086694	-2.635312	-7.709449	-0.642888	0.000000	0.000000	17.763888	-1.076343	-9.751330	34.013057	9.214728	12.954057	95.961003	88.491943	0.363513	2.585098	24.757584	6.727359	11.277271	110.440123	88.707690	-27.422935	-0.773154
6.116667	-9.095872	-47.104325	78.675241	0.243536	0.658812	0.870283	71.696065	2.110526	-0.264100	31.535633	0.550401	28.839994	-1.197580	0.000000	67.164291	-2.837755	-8.294213	31.144301	0.543571	25.805370	-7.896149	0.000000	-0.374560	-1.076429	0.185623	-0.695596	-1.431651	0.197225	-0.615365	-2.617230	0.197225	-0.428085	-2.617230	0.162420	-0.347817	-2.195055	0.150819	-0.214024	-1.667389	0.139217	-2.675447	-12.176783	1.032380	0.000000	0.000000	17.763734	0.963146	-13.070999	33.790207	10.691523	12.576994	95.294702	88.454110	0.535271	2.568823	25.702520	4.948212	11.207589	110.557036	88.782060	-27.124677	-0.054331
6.133333	-13.017529	-46.690569	75.702253	0.248804	0.659934	0.868653	72.053618	1.458545	2.708128	32.476606	0.566824	29.058343	-1.948455	0.000000	66.057177	-2.131428	-11.372828	30.314047	0.529080	25.528850	-7.045854	0.000000	-0.377959	-1.471064	0.502570	-0.701908	-1.956515	0.533981	-0.620949	-3.576745	0.533981	-0.431970	-3.576745	0.439749	-0.350973	-2.999793	0.408338	-0.215966	-2.278678	0.376927	-2.699725	-16.640968	2.795144	0.000000	0.000000	17.724361	3.157640	-16.422198	33.449630	12.162693	11.972875	94.635490	88.435869	0.338882	2.107016	26.772154	3.217922	11.195862	110.452387	88.864535	-26.408232	0.936955
6.150000	-16.529364	-46.327718	73.052989	0.253658	0.661460	0.866968	72.332821	0.854940	5.264744	33.250817	0.580336	29.193636	-2.468503	0.000000	64.958934	-1.463063	-14.114515	29.338834	0.512059	25.087943	-6.377648	0.000000	-0.378324	-1.827511	0.813848	-0.702585	-2.430590	0.864713	-0.621548	-4.443411	0.864713	-0.432386	-4.443411	0.712117	-0.351312	-3.726661	0.661251	-0.216174	-2.830815	0.610386	-2.702330	-20.673171	4.526376	0.000000	0.000000	17.680382	5.302647	-19.559118	33.052522	13.482406	11.339574	94.030971	88.432997	-0.619182	1.149990	27.827468	1.615529	11.213160	110.203397	88.955240	-25.297438	2.140730
6.166667	-19.556275	-46.004625	70.748463	0.257967	0.663364	0.865211	72.506344	0.337764	7.375487	33.823646	0.590334	29.241206	-2.758184	0.000000	63.870911	-0.862330	-16.470161	28.235141	0.492796	24.500018	-5.915288	0.000000	-0.375929	-2.136420	1.113620	-0.698137	-2.841439	1.183221	-0.617613	-5.194492	1.183221	-0.429649	-5.194492	0.974417	-0.349088	-4.356588	0.904816	-0.214806	-3.309315	0.835215	-2.685222	-24.167613	6.193620	0.000000	0.000000	17.651592	7.361449	-22.317477	32.597798	14.624421	10.731703	93.532028	88.444258	-2.399153	-0.306885	28.760914	0.140863	11.312927	109.850677	89.039381	-23.920490	3.339898
6.183333	-21.829802	-45.721961	69.015012	0.261435	0.665551	0.863344	72.550308	-0.060884	8.845368	34.150646	0.596041	29.204277	-2.747229	0.000000	62.859534	-0.355494	-18.266168	27.068133	0.472428	23.805898	-5.649689	0.000000	-0.369135	-2.371158	1.385265	-0.685521	-3.153640	1.471844	-0.606452	-5.765233	1.471844	-0.421885	-5.765233	1.212107	-0.342779	-4.835265	1.125528	-0.210924	-3.672924	1.038949	-2.636696	-26.823012	7.704429	0.000000	0.000000	17.640312	9.226559	-24.460372	32.111311	15.542672	10.212237	93.164771	88.454373	-5.003356	-2.290593	29.458701	-1.104407	11.466439	109.429830	89.101954	-22.288870	4.381491
6.200000	-23.280859	-45.473033	67.873809	0.263960	0.667919	0.861415	72.456136	-0.318257	9.644408	34.246123	0.597708	29.100584	-2.421369	0.000000	61.946213	0.024068	-19.445678	25.909665	0.452209	23.052687	-5.600049	0.000000	-0.360012	-2.523570	1.630811	-0.668577	-3.356348	1.732737	-0.591463	-6.135807	1.732737	-0.411457	-6.135807	1.426960	-0.334307	-5.146063	1.325034	-0.205711	-3.909010	1.223108	-2.571526	-28.547125	9.070083	0.000000	0.000000	17.673266	10.801227	-25.927904	31.552953	16.217274	9.742032	93.070018	88.479273	-8.201019	-4.388338	29.902537	-2.069019	11.741843	108.901704	89.124230	-20.562395	4.996129
6.216667	-23.886186	-45.268131	67.346835	0.265512	0.670334	0.859447	72.224334	-0.437458	9.775636	34.114612	0.595412	28.949039	-1.822086	0.000000	61.161983	0.285654	-19.947787	24.813553	0.433078	22.261581	-5.819724	0.000000	-0.347053	-2.591121	1.837881	-0.644512	-3.446191	1.952748	-0.570173	-6.300051	1.952748	-0.396647	-6.300051	1.608146	-0.322273	-5.283813	1.493278	-0.198306	-4.013646	1.378411	-2.478963	-29.311276	10.221742	0.000000	0.000000	17.789078	12.008238	-26.735348	30.912223	16.645701	9.429374	93.202028	88.510710	-12.042553	-6.766292	30.054692	-2.725107	12.075237	108.387615	89.124499	-18.717906	5.533935
6.233333	-23.527058	-45.113404	67.547481	0.265992	0.672626	0.857521	71.868418	-0.423880	9.166089	33.793829	0.589814	28.793068	-0.949139	0.000000	60.551600	0.392902	-19.759317	23.857027	0.416384	21.543036	-6.166709	0.000000	-0.329878	-2.560870	1.999690	-0.612616	-3.405957	2.124670	-0.541956	-6.226500	2.124670	-0.377017	-6.226500	1.749728	-0.306325	-5.222127	1.624748	-0.188492	-3.966788	1.499767	-2.356284	-28.969076	11.121673	0.000000	0.000000	18.009849	12.719559	-26.687466	30.132702	16.797193	9.247464	93.677168	88.545773	-15.974450	-8.728998	29.948386	-3.037132	12.513707	107.815504	89.106349	-16.992135	5.684790
6.250000	-22.677475	-44.976885	68.050305	0.265869	0.674677	0.855779	71.439839	-0.312590	8.256517	33.434953	0.583550	28.672862	0.005871	0.000000	60.030466	0.386586	-19.174536	23.055452	0.402394	20.938006	-6.662576	0.000000	-0.313518	-2.479889	2.135145	-0.582234	-3.298252	2.268592	-0.515079	-6.029602	2.268592	-0.358320	-6.029602	1.868252	-0.291133	-5.056989	1.734806	-0.179144	-3.841348	1.601359	-2.239428	-28.052998	11.875038	0.000000	0.000000	18.310701	13.005917	-26.159145	29.132090	16.789945	9.143269	94.433181	88.559850	-19.814629	-10.318617	29.716552	-3.171545	13.167959	107.234379	89.092956	-15.492429	5.767591
6.266667	-22.051811	-44.809040	68.275485	0.265731	0.676420	0.854317	71.003748	-0.216421	7.510263	33.210292	0.579629	28.650162	0.980728	0.000000	59.451012	0.349012	-18.696253	22.355267	0.390173	20.479589	-7.235075	0.000000	-0.299414	-2.415167	2.249358	-0.556042	-3.212172	2.389942	-0.491908	-5.872236	2.389942	-0.342200	-5.872236	1.968188	-0.278036	-4.925008	1.827603	-0.171085	-3.741093	1.687018	-2.138685	-27.320847	12.510252	0.000000	0.000000	18.608137	13.114422	-25.494177	27.826536	16.789687	9.038967	95.415658	88.560262	-23.382380	-11.408017	29.458127	-3.358378	14.078902	106.662454	89.088471	-14.166534	5.831874
6.283333	-21.900948	-44.481706	68.032473	0.265904	0.677837	0.853029	70.575858	-0.150149	7.130989	33.155973	0.578681	28.741652	1.965306	0.000000	58.741456	0.338876	-18.584586	21.705055	0.378825	20.190403	-7.771665	0.000000	-0.288786	-2.397291	2.342637	-0.536305	-3.188397	2.489052	-0.474447	-5.828774	2.489052	-0.330054	-5.828774	2.049807	-0.268167	-4.888556	1.903393	-0.165012	-3.713404	1.756978	-2.062771	-27.118638	13.029044	0.000000	0.000000	18.928905	13.181698	-24.879082	26.246982	16.863487	8.932453	96.561228	88.552374	-26.662667	-12.044176	29.258444	-3.702696	15.255879	106.120495	89.092128	-12.997831	5.931518
